<svg xmlns="http://www.w3.org/2000/svg" viewBox="0 0 800 600" id="Campus">
  <g id="campus-buildings" fill="#ffffff">
    <!-- Main Building -->
    <path d="M300 200 h200 l50 -50 l-150 -50 l-150 50 z" />
    <path d="M250 200 v200 h300 v-200 h-50" />
    
    <!-- Windows -->
    <rect x="280" y="240" width="40" height="60" />
    <rect x="340" y="240" width="40" height="60" />
    <rect x="400" y="240" width="40" height="60" />
    <rect x="460" y="240" width="40" height="60" />
    
    <rect x="280" y="320" width="40" height="60" />
    <rect x="340" y="320" width="40" height="60" />
    <rect x="400" y="320" width="40" height="60" />
    <rect x="460" y="320" width="40" height="60" />
    
    <!-- Steps -->
    <path d="M350 400 h100 v10 h-100 z" />
    <path d="M340 410 h120 v10 h-120 z" />
    <path d="M330 420 h140 v10 h-140 z" />
    
    <!-- Side Buildings -->
    <path d="M150 250 h80 v150 h-80 z" />
    <path d="M570 250 h80 v150 h-80 z" />
  </g>
</svg>
